<svg width="429" height="113" viewBox="0 0 429 113" fill="none" xmlns="http://www.w3.org/2000/svg">
<path d="M54.2812 11C29.8648 11 10 31.5938 10 56.9062C10 82.2187 29.8648 102.812 54.2812 102.812C78.6977 102.812 98.5625 82.2187 98.5625 56.9062C98.5625 31.5938 78.6977 11 54.2812 11ZM35.5469 77.6523C34.5363 77.6523 33.5485 77.3417 32.7083 76.7597C31.868 76.1776 31.2131 75.3504 30.8264 74.3825C30.4397 73.4146 30.3385 72.3496 30.5357 71.3221C30.7328 70.2946 31.2194 69.3508 31.934 68.61C32.6486 67.8692 33.559 67.3648 34.5501 67.1604C35.5412 66.956 36.5685 67.0609 37.5021 67.4618C38.4358 67.8627 39.2337 68.5416 39.7952 69.4127C40.3566 70.2838 40.6562 71.3078 40.6562 72.3555C40.6562 73.7603 40.1179 75.1076 39.1597 76.1009C38.2016 77.0943 36.902 77.6523 35.5469 77.6523ZM35.5469 61.9824C34.5363 61.9824 33.5485 61.6718 32.7083 61.0897C31.868 60.5077 31.2131 59.6804 30.8264 58.7126C30.4397 57.7447 30.3385 56.6797 30.5357 55.6522C30.7328 54.6247 31.2194 53.6809 31.934 52.9401C32.6486 52.1993 33.559 51.6948 34.5501 51.4904C35.5412 51.2861 36.5685 51.391 37.5021 51.7919C38.4358 52.1928 39.2337 52.8717 39.7952 53.7428C40.3566 54.6138 40.6562 55.6379 40.6562 56.6855C40.6562 58.0904 40.1179 59.4376 39.1597 60.431C38.2016 61.4244 36.902 61.9824 35.5469 61.9824ZM35.5469 45.8711C34.5363 45.8711 33.5485 45.5604 32.7083 44.9784C31.868 44.3964 31.2131 43.5691 30.8264 42.6012C30.4397 41.6334 30.3385 40.5683 30.5357 39.5408C30.7328 38.5134 31.2194 37.5695 31.934 36.8288C32.6486 36.088 33.559 35.5835 34.5501 35.3791C35.5412 35.1747 36.5685 35.2796 37.5021 35.6805C38.4358 36.0815 39.2337 36.7604 39.7952 37.6314C40.3566 38.5025 40.6562 39.5266 40.6562 40.5742C40.6562 41.979 40.1179 43.3263 39.1597 44.3197C38.2016 45.313 36.902 45.8711 35.5469 45.8711ZM74.7188 75.666H47.4688C46.5654 75.666 45.699 75.294 45.0602 74.6317C44.4214 73.9695 44.0625 73.0713 44.0625 72.1348C44.0625 71.1982 44.4214 70.3 45.0602 69.6378C45.699 68.9756 46.5654 68.6035 47.4688 68.6035H74.7188C75.6221 68.6035 76.4885 68.9756 77.1273 69.6378C77.7661 70.3 78.125 71.1982 78.125 72.1348C78.125 73.0713 77.7661 73.9695 77.1273 74.6317C76.4885 75.294 75.6221 75.666 74.7188 75.666ZM74.7188 59.9961H47.4688C46.5654 59.9961 45.699 59.6241 45.0602 58.9618C44.4214 58.2996 44.0625 57.4014 44.0625 56.4648C44.0625 55.5283 44.4214 54.6301 45.0602 53.9679C45.699 53.3056 46.5654 52.9336 47.4688 52.9336H74.7188C75.6221 52.9336 76.4885 53.3056 77.1273 53.9679C77.7661 54.6301 78.125 55.5283 78.125 56.4648C78.125 57.4014 77.7661 58.2996 77.1273 58.9618C76.4885 59.6241 75.6221 59.9961 74.7188 59.9961ZM74.7188 44.1055H47.4688C46.5654 44.1055 45.699 43.7334 45.0602 43.0712C44.4214 42.409 44.0625 41.5108 44.0625 40.5742C44.0625 39.6377 44.4214 38.7395 45.0602 38.0772C45.699 37.415 46.5654 37.043 47.4688 37.043H74.7188C75.6221 37.043 76.4885 37.415 77.1273 38.0772C77.7661 38.7395 78.125 39.6377 78.125 40.5742C78.125 41.5108 77.7661 42.409 77.1273 43.0712C76.4885 43.7334 75.6221 44.1055 74.7188 44.1055Z" fill="#53CE51"/>
<rect x="111" y="15" width="25" height="83" fill="#295E20"/>
<path d="M159.636 30.6818V23.1818H212V30.6818H190.045V93H181.591V30.6818H159.636ZM232.241 94.2273C228.923 94.2273 225.912 93.6023 223.207 92.3523C220.503 91.0795 218.355 89.25 216.764 86.8636C215.173 84.4545 214.378 81.5455 214.378 78.1364C214.378 75.1364 214.969 72.7045 216.151 70.8409C217.332 68.9545 218.912 67.4773 220.889 66.4091C222.866 65.3409 225.048 64.5455 227.435 64.0227C229.844 63.4773 232.264 63.0455 234.696 62.7273C237.878 62.3182 240.457 62.0114 242.435 61.8068C244.435 61.5795 245.889 61.2045 246.798 60.6818C247.73 60.1591 248.196 59.25 248.196 57.9545V57.6818C248.196 54.3182 247.276 51.7045 245.435 49.8409C243.616 47.9773 240.855 47.0455 237.151 47.0455C233.31 47.0455 230.298 47.8864 228.116 49.5682C225.935 51.25 224.401 53.0455 223.514 54.9545L215.878 52.2273C217.241 49.0455 219.06 46.5682 221.332 44.7955C223.628 43 226.128 41.75 228.832 41.0455C231.56 40.3182 234.241 39.9545 236.878 39.9545C238.56 39.9545 240.491 40.1591 242.673 40.5682C244.878 40.9545 247.003 41.7614 249.048 42.9886C251.116 44.2159 252.832 46.0682 254.196 48.5455C255.56 51.0227 256.241 54.3409 256.241 58.5V93H248.196V85.9091H247.787C247.241 87.0455 246.332 88.2614 245.06 89.5568C243.787 90.8523 242.094 91.9545 239.98 92.8636C237.866 93.7727 235.287 94.2273 232.241 94.2273ZM233.469 87C236.651 87 239.332 86.375 241.514 85.125C243.719 83.875 245.378 82.2614 246.491 80.2841C247.628 78.3068 248.196 76.2273 248.196 74.0455V66.6818C247.855 67.0909 247.105 67.4659 245.946 67.8068C244.81 68.125 243.491 68.4091 241.991 68.6591C240.514 68.8864 239.071 69.0909 237.662 69.2727C236.276 69.4318 235.151 69.5682 234.287 69.6818C232.196 69.9545 230.241 70.3977 228.423 71.0114C226.628 71.6023 225.173 72.5 224.06 73.7045C222.969 74.8864 222.423 76.5 222.423 78.5455C222.423 81.3409 223.457 83.4545 225.526 84.8864C227.616 86.2955 230.264 87 233.469 87ZM308.017 52.3636L300.79 54.4091C300.335 53.2045 299.665 52.0341 298.778 50.8977C297.915 49.7386 296.733 48.7841 295.233 48.0341C293.733 47.2841 291.812 46.9091 289.472 46.9091C286.267 46.9091 283.597 47.6477 281.46 49.125C279.347 50.5795 278.29 52.4318 278.29 54.6818C278.29 56.6818 279.017 58.2614 280.472 59.4205C281.926 60.5795 284.199 61.5455 287.29 62.3182L295.062 64.2273C299.744 65.3636 303.233 67.1023 305.528 69.4432C307.824 71.7614 308.972 74.75 308.972 78.4091C308.972 81.4091 308.108 84.0909 306.381 86.4545C304.676 88.8182 302.29 90.6818 299.222 92.0455C296.153 93.4091 292.585 94.0909 288.517 94.0909C283.176 94.0909 278.756 92.9318 275.256 90.6136C271.756 88.2955 269.54 84.9091 268.608 80.4545L276.244 78.5455C276.972 81.3636 278.347 83.4773 280.369 84.8864C282.415 86.2955 285.085 87 288.381 87C292.131 87 295.108 86.2045 297.312 84.6136C299.54 83 300.653 81.0682 300.653 78.8182C300.653 77 300.017 75.4773 298.744 74.25C297.472 73 295.517 72.0682 292.881 71.4545L284.153 69.4091C279.358 68.2727 275.835 66.5114 273.585 64.125C271.358 61.7159 270.244 58.7045 270.244 55.0909C270.244 52.1364 271.074 49.5227 272.733 47.25C274.415 44.9773 276.699 43.1932 279.585 41.8977C282.494 40.6023 285.79 39.9545 289.472 39.9545C294.653 39.9545 298.722 41.0909 301.676 43.3636C304.653 45.6364 306.767 48.6364 308.017 52.3636ZM328.582 73.9091L328.446 63.9545H330.082L352.991 40.6364H362.946L338.537 65.3182H337.855L328.582 73.9091ZM321.082 93V23.1818H329.128V93H321.082ZM354.355 93L333.901 67.0909L339.628 61.5L364.582 93H354.355ZM410.392 52.3636L403.165 54.4091C402.71 53.2045 402.04 52.0341 401.153 50.8977C400.29 49.7386 399.108 48.7841 397.608 48.0341C396.108 47.2841 394.188 46.9091 391.847 46.9091C388.642 46.9091 385.972 47.6477 383.835 49.125C381.722 50.5795 380.665 52.4318 380.665 54.6818C380.665 56.6818 381.392 58.2614 382.847 59.4205C384.301 60.5795 386.574 61.5455 389.665 62.3182L397.438 64.2273C402.119 65.3636 405.608 67.1023 407.903 69.4432C410.199 71.7614 411.347 74.75 411.347 78.4091C411.347 81.4091 410.483 84.0909 408.756 86.4545C407.051 88.8182 404.665 90.6818 401.597 92.0455C398.528 93.4091 394.96 94.0909 390.892 94.0909C385.551 94.0909 381.131 92.9318 377.631 90.6136C374.131 88.2955 371.915 84.9091 370.983 80.4545L378.619 78.5455C379.347 81.3636 380.722 83.4773 382.744 84.8864C384.79 86.2955 387.46 87 390.756 87C394.506 87 397.483 86.2045 399.688 84.6136C401.915 83 403.028 81.0682 403.028 78.8182C403.028 77 402.392 75.4773 401.119 74.25C399.847 73 397.892 72.0682 395.256 71.4545L386.528 69.4091C381.733 68.2727 378.21 66.5114 375.96 64.125C373.733 61.7159 372.619 58.7045 372.619 55.0909C372.619 52.1364 373.449 49.5227 375.108 47.25C376.79 44.9773 379.074 43.1932 381.96 41.8977C384.869 40.6023 388.165 39.9545 391.847 39.9545C397.028 39.9545 401.097 41.0909 404.051 43.3636C407.028 45.6364 409.142 48.6364 410.392 52.3636Z" fill="#53CE51"/>
</svg>
